# Blender v2.77 (sub 0) OBJ File: 'flicker_habitat.obj'
# www.blender.org
mtllib flicker_habitat.mtl
o crystal
v 0.000000 0.130000 0.000000
v -0.161667 0.250000 0.151667
v 0.000000 0.197500 0.191250
v -0.191250 0.197500 0.000000
v 0.161667 0.250000 0.151667
v 0.191250 0.197500 0.000000
v 0.151667 0.250000 -0.141667
v 0.000000 0.197500 -0.191250
v -0.151667 0.250000 -0.141667
v -0.111250 0.400000 0.171250
v 0.000000 0.400000 0.255000
v -0.161667 0.560000 0.151667
v 0.000000 0.672500 0.191250
v 0.161667 0.560000 0.151667
v 0.111250 0.400000 0.171250
v 0.255000 0.400000 0.000000
v 0.191250 0.682500 0.000000
v 0.151667 0.560000 -0.141667
v 0.151250 0.400000 -0.141250
v 0.000000 0.400000 -0.255000
v -0.151250 0.400000 -0.141250
v 0.000000 0.672500 -0.191250
v -0.151667 0.560000 -0.141667
v -0.255000 0.400000 0.000000
v -0.191250 0.682500 0.000000
v 0.000000 0.860000 0.000000
vt 0.7500 0.7500
vt 0.7079 0.7079
vt 0.7500 0.6932
vt 0.6932 0.7500
vt 0.7921 0.7079
vt 0.8068 0.7500
vt 0.7921 0.7921
vt 0.7500 0.8068
vt 0.7079 0.7921
vt 0.2079 0.7022
vt 0.1932 0.7279
vt 0.2500 0.7279
vt 0.2500 0.6932
vt 0.2079 0.7554
vt 0.2500 0.7747
vt 0.2921 0.7554
vt 0.3068 0.7279
vt 0.2921 0.7022
vt 0.5829 0.7055
vt 0.5682 0.7406
vt 0.6250 0.7406
vt 0.6250 0.6932
vt 0.5829 0.7781
vt 0.6250 0.8068
vt 0.6671 0.7781
vt 0.6818 0.7406
vt 0.6671 0.7055
vt 0.3750 0.6932
vt 0.3750 0.7279
vt 0.3329 0.7022
vt 0.3182 0.7279
vt 0.4171 0.7022
vt 0.4318 0.7279
vt 0.4171 0.7554
vt 0.3750 0.7747
vt 0.3329 0.7554
vt 0.5000 0.6932
vt 0.5000 0.7406
vt 0.4579 0.7055
vt 0.4432 0.7406
vt 0.5421 0.7055
vt 0.5568 0.7406
vt 0.5421 0.7781
vt 0.5000 0.8068
vt 0.4579 0.7781
vt 0.1932 0.7764
vt 0.2500 0.8068
vt 0.3182 0.7764
vt 0.3750 0.8068
vt 0.4318 0.7764
vt 0.3068 0.7764
vn 0.3615 0.8792 -0.3103
vn 0.3099 0.8781 -0.3644
vn -0.3099 0.8781 -0.3644
vn -0.3615 0.8792 -0.3103
vn -0.3044 0.8624 0.4046
vn -0.3991 0.8646 0.3052
vn 0.3991 0.8646 0.3052
vn 0.3044 0.8624 0.4046
vn 0.5986 -0.0974 -0.7951
vn 0.3143 0.2851 -0.9055
vn 0.5989 0.0913 -0.7956
vn 0.3689 -0.2117 -0.9050
vn -0.3689 -0.2117 -0.9050
vn -0.5989 0.0913 -0.7956
vn -0.3143 0.2851 -0.9055
vn -0.5986 -0.0974 -0.7951
vn -0.7547 -0.1709 -0.6335
vn -0.9161 0.2884 -0.2785
vn -0.7560 0.1605 -0.6346
vn -0.9154 -0.2066 -0.3454
vn -0.8852 -0.1998 0.4201
vn -0.8059 0.0036 0.5920
vn -0.8923 0.2809 0.3534
vn -0.8059 -0.0039 0.5920
vn 0.3839 0.2773 0.8808
vn 0.6011 -0.0039 0.7992
vn -0.6011 -0.0039 0.7992
vn -0.3839 0.2773 0.8808
vn -0.6011 0.0036 0.7992
vn -0.4381 -0.2048 0.8753
vn 0.6011 0.0036 0.7992
vn 0.4381 -0.2048 0.8753
vn 0.9161 0.2884 -0.2785
vn 0.7547 -0.1709 -0.6335
vn 0.8059 -0.0039 0.5920
vn 0.8923 0.2809 0.3534
vn 0.8059 0.0036 0.5920
vn 0.8852 -0.1998 0.4201
vn 0.7560 0.1605 -0.6346
vn 0.9154 -0.2066 -0.3454
vn 0.5547 -0.5911 -0.5856
vn 0.5524 -0.5952 -0.5836
vn 0.5891 -0.5225 0.6164
vn 0.5524 -0.5952 0.5836
vn -0.5524 -0.5952 0.5836
vn -0.5891 -0.5225 0.6164
vn -0.5524 -0.5952 -0.5836
vn -0.5547 -0.5911 -0.5856
usemtl Colored
s off
f 1/1/1 2/2/1 3/3/1
f 1/1/2 4/4/2 2/2/2
f 1/1/3 5/5/3 6/6/3
f 1/1/4 3/3/4 5/5/4
f 1/1/5 6/6/5 7/7/5
f 1/1/6 7/7/6 8/8/6
f 1/1/7 8/8/7 9/9/7
f 1/1/8 9/9/8 4/4/8
f 2/10/9 10/11/9 11/12/9
f 3/13/10 2/10/10 11/12/10
f 11/12/11 10/11/11 12/14/11
f 11/12/12 12/14/12 13/15/12
f 11/12/13 13/15/13 14/16/13
f 11/12/14 14/16/14 15/17/14
f 3/13/15 11/12/15 5/18/15
f 5/18/16 11/12/16 15/17/16
f 5/19/17 15/20/17 16/21/17
f 6/22/18 5/19/18 16/21/18
f 15/20/19 14/23/19 16/21/19
f 16/21/20 14/23/20 17/24/20
f 16/21/21 17/24/21 18/25/21
f 16/21/22 18/25/22 19/26/22
f 6/22/23 16/21/23 7/27/23
f 7/27/24 16/21/24 19/26/24
f 8/28/25 20/29/25 9/30/25
f 9/30/26 20/29/26 21/31/26
f 7/32/27 19/33/27 20/29/27
f 8/28/28 7/32/28 20/29/28
f 19/33/29 18/34/29 20/29/29
f 20/29/30 18/34/30 22/35/30
f 21/31/31 20/29/31 23/36/31
f 20/29/32 22/35/32 23/36/32
f 4/37/33 24/38/33 2/39/33
f 2/39/34 24/38/34 10/40/34
f 9/41/35 21/42/35 24/38/35
f 4/37/36 9/41/36 24/38/36
f 24/38/37 21/42/37 23/43/37
f 24/38/38 23/43/38 25/44/38
f 10/40/39 24/38/39 12/45/39
f 24/38/40 25/44/40 12/45/40
f 12/14/41 25/46/41 13/15/41
f 13/15/42 25/46/42 26/47/42
f 23/36/43 22/35/43 25/48/43
f 22/35/44 26/49/44 25/48/44
f 22/35/45 17/50/45 26/49/45
f 18/34/46 17/50/46 22/35/46
f 13/15/47 26/47/47 17/51/47
f 14/16/48 13/15/48 17/51/48