# Blender v2.77 (sub 0) OBJ File: ''
# www.blender.org
mtllib obelisk.mtl
o Cube
v 1.000000 0.000000 0.000000
v 1.000000 0.000000 1.000000
v 0.000000 0.000000 1.000000
v 0.000000 0.000000 0.000000
v 0.259019 1.634994 0.259019
v 0.259019 1.634994 0.740981
v 0.493170 2.110794 0.506830
v 0.493170 2.110794 0.493170
v 0.972820 0.279366 0.027181
v 0.972820 0.279365 0.972820
v 0.740981 1.634994 0.740981
v 0.027180 0.279365 0.972819
v 0.027181 0.279365 0.027180
v 0.506830 2.110794 0.493170
v 0.506830 2.110794 0.506830
v 0.740981 1.634994 0.259019
vt 0.3333 0.5000
vt 0.0000 0.5000
vt 0.0000 0.0640
vt 0.3333 0.0640
vt 0.7530 0.8735
vt 0.9137 0.8735
vt 0.8356 1.0000
vt 0.8311 1.0000
vt 0.6667 -0.0000
vt 0.6576 0.0619
vt 0.3424 0.0619
vt 0.3333 0.0000
vt 0.6576 0.5619
vt 0.5803 0.8735
vt 0.4197 0.8735
vt 0.3424 0.5619
vt 0.9909 0.5619
vt 0.6757 0.5619
vt 0.6757 0.0619
vt 1.0000 -0.0000
vt 0.9909 0.0619
vt 0.3288 0.5060
vt 0.3288 0.5000
vt 0.3333 0.5000
vt 0.3333 0.5060
vt 0.5023 1.0000
vt 0.4977 1.0000
vt 0.7530 0.3735
vt 0.9137 0.3735
vt 0.8356 0.5000
vt 0.8311 0.5000
vt 0.4197 0.3735
vt 0.5803 0.3735
vt 0.5023 0.5000
vt 0.4977 0.5000
vt 0.6667 0.5000
vt 0.3333 0.5000
vt 1.0000 0.5000
vt 0.6667 0.5000
vn 0.0000 -1.0000 -0.0000
vn -0.8972 0.4415 0.0000
vn 0.9953 0.0968 0.0000
vn -0.0000 0.1686 0.9857
vn -0.9857 0.1686 -0.0000
vn 0.0000 0.0968 -0.9953
vn 0.0000 1.0000 0.0000
vn 0.0000 0.4415 0.8972
vn 0.0000 0.4415 -0.8972
vn 0.8972 0.4415 0.0000
vn -0.0000 0.0968 0.9953
vn -0.9953 0.0968 -0.0000
vn 0.0000 0.1686 -0.9857
vn 0.9857 0.1686 0.0000
usemtl Material
s 1
f 1/1/1 2/2/1 3/3/1 4/4/1
f 5/5/2 6/6/2 7/7/2 8/8/2
f 1/9/3 9/10/3 10/11/3 2/12/3
f 10/13/4 11/14/4 6/15/4 12/16/4
f 12/17/5 6/6/5 5/5/5 13/18/5
f 9/19/6 1/9/6 4/20/6 13/21/6
f 14/22/7 8/23/7 7/24/7 15/25/7
f 6/15/8 11/14/8 15/26/8 7/27/8
f 16/28/9 5/29/9 8/30/9 14/31/9
f 11/32/10 16/33/10 14/34/10 15/35/10
f 2/36/11 10/13/11 12/16/11 3/37/11
f 3/38/12 12/17/12 13/18/12 4/39/12
f 16/28/13 9/19/13 13/21/13 5/29/13
f 9/10/14 16/33/14 11/32/14 10/11/14
